<svg xmlns="http://www.w3.org/2000/svg" width="430" height="430" style="width:100%;height:100%;transform:translate3d(0,0,0);content-visibility:visible" viewBox="0 0 430 430"><defs><mask id="E" mask-type="alpha"><g filter="url(#a)"><path fill="#fff" d="M0 0h430v430H0z" opacity="0"/><use xmlns:ns1="http://www.w3.org/1999/xlink" ns1:href="#b"/></g></mask><mask id="D" mask-type="alpha"><g filter="url(#c)"><path fill="#fff" d="M0 0h430v430H0z" opacity="0"/><use xmlns:ns2="http://www.w3.org/1999/xlink" ns2:href="#d"/></g></mask><mask id="C" mask-type="alpha"><use xmlns:ns3="http://www.w3.org/1999/xlink" ns3:href="#e"/></mask><mask id="B" mask-type="alpha"><g filter="url(#f)"><path fill="#fff" d="M0 0h430v430H0z" opacity="0"/><use xmlns:ns4="http://www.w3.org/1999/xlink" ns4:href="#g"/></g></mask><mask id="A" mask-type="alpha"><g filter="url(#h)"><path fill="#fff" d="M0 0h430v430H0z" opacity="0"/><use xmlns:ns5="http://www.w3.org/1999/xlink" ns5:href="#i"/></g></mask><mask id="z" mask-type="alpha"><g filter="url(#j)"><path fill="#fff" d="M0 0h430v430H0z" opacity="0"/><use xmlns:ns6="http://www.w3.org/1999/xlink" ns6:href="#k"/></g></mask><mask id="y" mask-type="alpha"><g filter="url(#l)"><path fill="#fff" d="M0 0h430v430H0z" opacity="0"/><use xmlns:ns7="http://www.w3.org/1999/xlink" ns7:href="#m"/></g></mask><mask id="x" mask-type="alpha"><g filter="url(#n)"><path fill="#fff" d="M0 0h430v430H0z" opacity="0"/><use xmlns:ns8="http://www.w3.org/1999/xlink" ns8:href="#o"/></g></mask><mask id="v" mask-type="alpha"><use xmlns:ns9="http://www.w3.org/1999/xlink" ns9:href="#p"/></mask><mask id="u" mask-type="alpha"><g filter="url(#q)"><path fill="#fff" d="M0 0h430v430H0z" opacity="0"/><use xmlns:ns10="http://www.w3.org/1999/xlink" ns10:href="#r"/></g></mask><filter id="a" width="100%" height="100%" x="0%" y="0%" filterUnits="objectBoundingBox"><feComponentTransfer in="SourceGraphic"><feFuncA tableValues="1.0 0.0" type="table"/></feComponentTransfer></filter><filter id="c" width="100%" height="100%" x="0%" y="0%" filterUnits="objectBoundingBox"><feComponentTransfer in="SourceGraphic"><feFuncA tableValues="1.0 0.0" type="table"/></feComponentTransfer></filter><filter id="f" width="100%" height="100%" x="0%" y="0%" filterUnits="objectBoundingBox"><feComponentTransfer in="SourceGraphic"><feFuncA tableValues="1.0 0.0" type="table"/></feComponentTransfer></filter><filter id="h" width="100%" height="100%" x="0%" y="0%" filterUnits="objectBoundingBox"><feComponentTransfer in="SourceGraphic"><feFuncA tableValues="1.0 0.0" type="table"/></feComponentTransfer></filter><filter id="j" width="100%" height="100%" x="0%" y="0%" filterUnits="objectBoundingBox"><feComponentTransfer in="SourceGraphic"><feFuncA tableValues="1.0 0.0" type="table"/></feComponentTransfer></filter><filter id="l" width="100%" height="100%" x="0%" y="0%" filterUnits="objectBoundingBox"><feComponentTransfer in="SourceGraphic"><feFuncA tableValues="1.0 0.0" type="table"/></feComponentTransfer></filter><filter id="n" width="100%" height="100%" x="0%" y="0%" filterUnits="objectBoundingBox"><feComponentTransfer in="SourceGraphic"><feFuncA tableValues="1.0 0.0" type="table"/></feComponentTransfer></filter><filter id="q" width="100%" height="100%" x="0%" y="0%" filterUnits="objectBoundingBox"><feComponentTransfer in="SourceGraphic"><feFuncA tableValues="1.0 0.0" type="table"/></feComponentTransfer></filter><path id="i" style="display:none"/><path id="k" style="display:none"/><path id="e" style="display:none"/><path id="g" style="display:none"/><path id="p" fill="#EBE6EF" d="M82.005-37.794a61.434 61.434 0 0 1 16.476-9.349c9.569-3.624 19.489-4.705 28.988-3.574 21.901 2.603 31.901 28.989 17.217 45.445-6.366 7.147-14.514 12.902-24.083 16.536-13.533 5.125-27.748 5.155-40.53 1.051" class="secondary" style="display:block" transform="translate(207.056 214.297)"/><path id="r" fill="#EBE6EF" d="M-81.984 12.205c-12.873 4.224-27.217 4.224-40.87-.941-9.569-3.634-17.708-9.389-24.084-16.536-14.674-16.456-4.684-42.842 17.217-45.445 9.509-1.131 19.419-.05 28.998 3.574 6.236 2.372 11.862 5.635 16.787 9.609" style="display:block" transform="translate(237.111 208.079)"/><g id="b" style="display:none"><path/><path fill-opacity="0" stroke-linecap="round" stroke-linejoin="round" class="secondary"/></g><g id="d" style="display:none"><path class="primary"/><path/></g><g id="m" style="display:none"><path/><path fill-opacity="0" stroke-linecap="round" stroke-linejoin="round" class="secondary"/></g><g id="o" style="display:none"><path/><path fill-opacity="0" stroke-linecap="round" stroke-linejoin="round" class="secondary"/></g><clipPath id="s"><path d="M0 0h430v430H0z"/></clipPath><clipPath id="w"><path d="M0 0h430v430H0z"/></clipPath><clipPath id="t"><path d="M0 0h430v430H0z"/></clipPath></defs><g clip-path="url(#s)"><g clip-path="url(#t)" style="display:block"><path class="quinary" style="display:none"/><path fill="#EBE6EF" d="M-81.984 12.205c-12.873 4.224-27.217 4.224-40.87-.941-9.569-3.634-17.708-9.389-24.084-16.536-14.674-16.456-4.684-42.842 17.217-45.445 9.509-1.131 19.419-.05 28.998 3.574 6.236 2.372 11.862 5.635 16.787 9.609" class="secondary" style="display:block" transform="translate(225.111 215.079)"/><g mask="url(#u)" opacity=".5" style="mix-blend-mode:multiply;display:block"><path fill="#EBE6EF" d="M143.127 227.284c-12.873 4.224-27.217 4.224-40.87-.941-9.569-3.634-17.708-9.389-24.084-16.536-14.674-16.456-4.684-42.842 17.217-45.445 9.509-1.131 19.419-.05 28.998 3.574 6.236 2.372 11.862 5.635 16.787 9.609" class="secondary" opacity="1"/></g><path fill="none" stroke="#3A3347" stroke-linecap="round" stroke-linejoin="round" stroke-width="7" d="m-83.686-8.656-17.157-5.715" class="primary" style="display:block" transform="translate(215 215)"/><path fill="#EBE6EF" d="M82.005-37.794a61.434 61.434 0 0 1 16.476-9.349c9.569-3.624 19.489-4.705 28.988-3.574 21.901 2.603 31.901 28.989 17.217 45.445-6.366 7.147-14.514 12.902-24.083 16.536-13.533 5.125-27.748 5.155-40.53 1.051" class="secondary" style="display:block" transform="translate(207.056 214.297)"/><g mask="url(#v)" opacity=".5" style="mix-blend-mode:multiply;display:block"><path fill="#EBE6EF" d="m305.5 161-28 4 1.5 79s18.5 12.5 23-8 3.5-75 3.5-75z" class="secondary" opacity="1"/></g><path fill="none" stroke="#3A3347" stroke-linecap="round" stroke-linejoin="round" stroke-width="7" d="M97.941-14.371 81.805-8.876" class="primary" style="display:block" transform="translate(215 215)"/><g style="display:block"><path fill="#646E78" d="M134.027 163.753c-15.835-13.884-25.826-34.243-25.826-56.945 0-20.19 7.908-38.538 20.801-52.101 2.833 26.596 17.317 49.718 38.257 64.152m93.661.06c20.98-14.444 35.504-37.586 38.337-64.212 12.883 13.563 20.791 31.911 20.791 52.101 0 22.762-10.041 43.161-25.946 57.045" class="tertiary"/><path fill="#646E78" d="M-80.973-51.247c-15.835-13.884-25.826-34.243-25.826-56.945 0-20.19 7.908-38.538 20.801-52.101a89 89 0 0 0 3.728 17.699C-99.5-118-89.376-66.762-73.241-55.641M45.92-96.081c20.98-14.444 35.504-37.586 38.337-64.212a75.706 75.706 0 0 1 15.031 23.089C94.5-121 77.5-91.5 58.102-79.647" class="tertiary" opacity=".5" style="mix-blend-mode:multiply" transform="translate(215 215)"/><path fill="#EBE6EF" d="M144.274 291.348c-12.2-45.9-13.37-93.85-13.37-93.85-5.52-49.57 33.28-92.92 83.15-92.92 46.69 0 83.66 37.99 83.66 83.52 0 3.1-.17 6.24-.52 9.4 0 0-1.17 48.07-13.42 94.03" class="secondary"/><path fill="#EBE6EF" d="M-70.726 76.348c-12.2-45.9-13.37-93.85-13.37-93.85-5.52-49.57 33.28-92.92 83.15-92.92C-14-100-55-72.904-55-27.374c0 3.1.143 6.24.439 9.4 0 0 .988 48.07 11.335 94.03" class="secondary" opacity=".5" style="mix-blend-mode:multiply" transform="translate(215 215)"/><path fill="#3A3347" d="M214.054 104.578c-3.681 0-7.303.236-10.85.694-2.913.376-5.776.9-8.582 1.566 27.589 31.692 43.017 47.536 43.017 47.536s59.716 24.818 59.023 20.504a83.623 83.623 0 0 0-.558-3.099c-7.582-37.939-41.073-67.201-82.05-67.201z" class="primary"/><path fill="#3A3347" d="M194.936 106.768c-9.149 18.458-7.707 27.596-4.324 32.551 7.187 10.52 23.693 2.893 40.199 15.906 13.093 10.31 10.46 21.231 20.95 26.636 7.167 3.704 20.674 8.521 44.898-7.134" class="primary"/><path fill="#3A3347" d="M-11.5-109.5s-5 .75-8.564 1.268c-9.149 18.458-7.707 27.596-4.324 32.551 7.187 10.52 23.693 2.893 40.199 15.906 13.093 10.31 10.46 21.231 20.95 26.636 7.167 3.704 20.674 8.521 44.898-7.134L81-43.5s-5.75 2-23.371 2-18.736-18.514-29.443-27.882C17.479-78.75-8.75-73.75-16.75-81.25s5.25-28.25 5.25-28.25z" class="primary" opacity=".5" style="mix-blend-mode:multiply" transform="translate(215 215)"/><path fill="none" stroke="#3A3347" stroke-linecap="round" stroke-linejoin="round" stroke-width="12" d="M174.074 220.602v.045m80.177-.045v.045" class="primary"/><path fill="#F9C9C0" d="M258.021 374.259H170.08c-24.284 0-43.971-22.054-43.971-49.26s23.83-49.26 87.941-49.26c63.228 0 87.942 22.054 87.942 49.26s-19.687 49.26-43.971 49.26z" class="quaternary"/><path fill="#F9C9C0" d="m-17.979 159.035-26.941.224c-24.284 0-43.971-22.054-43.971-49.26s23.83-49.26 87.941-49.26C-84 61-58 159.035-17.979 159.035z" class="quaternary" opacity=".5" style="mix-blend-mode:multiply" transform="translate(215 215)"/><path fill="none" stroke="#3A3347" stroke-linecap="round" stroke-linejoin="round" stroke-width="7" d="M184.559 320.7v13.49m59.207-13.49v13.49" class="primary"/></g></g><g clip-path="url(#w)" style="display:none"><g style="display:none"><path class="secondary"/><path fill="none" class="primary"/></g><g mask="url(#x)" style="mix-blend-mode:multiply;display:none"><path class="secondary"/><path fill="none" class="primary"/></g><g style="display:none"><path class="secondary"/><path fill="none" class="primary"/></g><g mask="url(#y)" style="mix-blend-mode:multiply;display:none"><path class="secondary"/><path fill="none" class="primary"/></g><path class="tertiary" style="display:none"/><g mask="url(#z)" style="mix-blend-mode:multiply;display:none"><path class="tertiary"/></g><path class="tertiary" style="display:none"/><g mask="url(#A)" style="mix-blend-mode:multiply;display:none"><path class="tertiary"/></g><path class="secondary" style="display:none"/><g mask="url(#B)" style="mix-blend-mode:multiply;display:none"><path class="secondary"/></g><g mask="url(#C)" style="display:none"><path class="primary"/><path class="primary"/></g><g mask="url(#D)" style="mix-blend-mode:multiply;display:none"><path class="primary"/><path class="primary"/></g><path fill="none" class="primary" style="display:none"/><path fill="none" class="primary" style="display:none"/><g style="display:none"><path class="quaternary"/><path fill="none" class="primary"/></g><g mask="url(#E)" style="mix-blend-mode:multiply;display:none"><path class="quaternary"/><path fill="none" class="primary"/></g></g></g></svg>